<?xml version="1.0" encoding="UTF-8"?><svg id="Layer_2" xmlns="http://www.w3.org/2000/svg" viewBox="0 0 17.95 17.95"><g id="Layer_2-2"><path d="M1.5,17.95c-.38,0-.77-.15-1.06-.44-.59-.59-.59-1.54,0-2.12L15.39.44c.59-.59,1.54-.59,2.12,0,.59.59.59,1.54,0,2.12L2.56,17.51c-.29.29-.68.44-1.06.44Z" style="fill:#fff;"/><path d="M16.45,17.95c-.38,0-.77-.15-1.06-.44L.44,2.56C-.15,1.98-.15,1.02.44.44,1.03-.15,1.97-.15,2.56.44l14.95,14.95c.59.59.59,1.54,0,2.12-.29.29-.68.44-1.06.44Z" style="fill:#fff;"/></g></svg>