<?xml version="1.0" encoding="UTF-8"?><svg id="Layer_2" xmlns="http://www.w3.org/2000/svg" viewBox="0 0 23.22 17.74"><g id="Layer_2-2"><path d="M1.5,3h20.22c.83,0,1.5-.67,1.5-1.5s-.67-1.5-1.5-1.5H1.5C.67,0,0,.67,0,1.5s.67,1.5,1.5,1.5Z" style="fill:#fff;"/><path d="M21.72,7.37H1.5c-.83,0-1.5.67-1.5,1.5s.67,1.5,1.5,1.5h20.22c.83,0,1.5-.67,1.5-1.5s-.67-1.5-1.5-1.5Z" style="fill:#fff;"/><path d="M21.72,14.74H1.5c-.83,0-1.5.67-1.5,1.5s.67,1.5,1.5,1.5h20.22c.83,0,1.5-.67,1.5-1.5s-.67-1.5-1.5-1.5Z" style="fill:#fff;"/></g></svg>