<?xml version="1.0" encoding="UTF-8"?><svg id="Layer_2" xmlns="http://www.w3.org/2000/svg" viewBox="0 0 19.09 12.85"><g id="Layer_2-2"><path d="M16.58.68c.96,0,1.74.7,1.74,1.56v8.38c0,.86-.78,1.56-1.74,1.56H2.5c-.96,0-1.74-.7-1.74-1.56V2.24c0-.86.78-1.56,1.74-1.56h14.08M16.58,0H2.5C1.13,0,0,1.01,0,2.24v8.38c0,1.23,1.13,2.24,2.5,2.24h14.08c1.38,0,2.5-1.01,2.5-2.24V2.24c0-1.23-1.13-2.24-2.5-2.24h0Z" style="fill:#fff;"/><path d="M9.64,7.74c-.09,0-.18-.03-.25-.08L1.34,1.4c-.16-.12-.18-.34-.04-.48.14-.14.38-.16.54-.03l8.06,6.26c.16.12.18.34.04.48-.08.08-.18.12-.29.12Z" style="fill:#fff;"/><path d="M9.64,7.74c-.1,0-.2-.04-.28-.11-.14-.14-.14-.35.02-.48L17.03.78c.15-.13.39-.12.54.02s.14.35-.02.48l-7.65,6.38c-.07.06-.17.09-.26.09Z" style="fill:#fff;"/></g></svg>